<?xml version="1.0" encoding="UTF-8"?>
<!DOCTYPE svg PUBLIC "-//W3C//DTD SVG 1.1//EN" "http://www.w3.org/Graphics/SVG/1.1/DTD/svg11.dtd">
<svg xmlns="http://www.w3.org/2000/svg" version="1.1" width="1244px" height="311px" style="shape-rendering:geometricPrecision; text-rendering:geometricPrecision; image-rendering:optimizeQuality; fill-rule:evenodd; clip-rule:evenodd" xmlns:xlink="http://www.w3.org/1999/xlink">
<g><path style="opacity:0.99" fill="#1d418c" d="M 109.5,-0.5 C 112.167,-0.5 114.833,-0.5 117.5,-0.5C 117.5,29.8333 117.5,60.1667 117.5,90.5C 112.678,90.648 108.012,89.9813 103.5,88.5C 103.5,59.5 103.5,30.5 103.5,1.5C 105.626,0.951844 107.626,0.285178 109.5,-0.5 Z"/></g>
<g><path style="opacity:0.989" fill="#1d478c" d="M 117.5,-0.5 C 119.5,-0.5 121.5,-0.5 123.5,-0.5C 125.374,0.285178 127.374,0.951844 129.5,1.5C 129.5,30.5 129.5,59.5 129.5,88.5C 125.64,89.8042 121.64,90.4709 117.5,90.5C 117.5,60.1667 117.5,29.8333 117.5,-0.5 Z"/></g>
<g><path style="opacity:0.983" fill="#3ad77e" d="M 246.5,-0.5 C 251.167,-0.5 255.833,-0.5 260.5,-0.5C 280.625,3.45677 293.125,15.4568 298,35.5C 301.122,56.0691 294.288,72.2357 277.5,84C 239.876,100.745 223.709,129.578 229,170.5C 235.541,197.377 251.708,215.877 277.5,226C 298.475,241.717 303.975,261.883 294,286.5C 286.327,299.569 275.16,307.569 260.5,310.5C 255.833,310.5 251.167,310.5 246.5,310.5C 237.599,308.883 229.932,304.883 223.5,298.5C 223.5,202.5 223.5,106.5 223.5,10.5C 230.313,4.92556 237.98,1.2589 246.5,-0.5 Z"/></g>
<g><path style="opacity:0.986" fill="#e52e08" d="M 383.5,-0.5 C 385.167,-0.5 386.833,-0.5 388.5,-0.5C 388.5,32.8333 388.5,66.1667 388.5,99.5C 387.167,101.5 385.5,103.167 383.5,104.5C 383.5,69.8333 383.5,35.1667 383.5,0.5C 383.5,0.166667 383.5,-0.166667 383.5,-0.5 Z"/></g>
<g><path style="opacity:0.989" fill="#e6330b" d="M 388.5,-0.5 C 389.833,-0.5 391.167,-0.5 392.5,-0.5C 392.5,32.8333 392.5,66.1667 392.5,99.5C 391.167,98.1667 389.833,98.1667 388.5,99.5C 388.5,66.1667 388.5,32.8333 388.5,-0.5 Z"/></g>
<g><path style="opacity:0.987" fill="#e7370d" d="M 392.5,-0.5 C 393.5,-0.5 394.5,-0.5 395.5,-0.5C 395.5,33.8333 395.5,68.1667 395.5,102.5C 394.167,101.833 393.167,100.833 392.5,99.5C 392.5,66.1667 392.5,32.8333 392.5,-0.5 Z"/></g>
<g><path style="opacity:0.989" fill="#e83b10" d="M 395.5,-0.5 C 396.167,-0.5 396.833,-0.5 397.5,-0.5C 398.568,0.434475 399.901,0.767809 401.5,0.5C 401.5,36.8333 401.5,73.1667 401.5,109.5C 399.529,107.192 397.529,104.858 395.5,102.5C 395.5,68.1667 395.5,33.8333 395.5,-0.5 Z"/></g>
<g><path style="opacity:0.988" fill="#fdb848" d="M 526.5,-0.5 C 529.167,-0.5 531.833,-0.5 534.5,-0.5C 534.5,32.5 534.5,65.5 534.5,98.5C 531.28,96.3971 528.28,94.0638 525.5,91.5C 525.5,61.1667 525.5,30.8333 525.5,0.5C 526.167,0.5 526.5,0.166667 526.5,-0.5 Z"/></g>
<g><path style="opacity:0.989" fill="#fdbd45" d="M 534.5,-0.5 C 536.167,-0.5 537.833,-0.5 539.5,-0.5C 539.5,33.8333 539.5,68.1667 539.5,102.5C 537.611,101.396 535.945,100.063 534.5,98.5C 534.5,65.5 534.5,32.5 534.5,-0.5 Z"/></g>
<g><path style="opacity:0.986" fill="#fdc043" d="M 539.5,-0.5 C 540.167,-0.5 540.833,-0.5 541.5,-0.5C 541.5,0.166667 541.833,0.5 542.5,0.5C 542.5,35.8333 542.5,71.1667 542.5,106.5C 541.026,105.564 540.026,104.23 539.5,102.5C 539.5,68.1667 539.5,33.8333 539.5,-0.5 Z"/></g>
<g><path style="opacity:0.906" fill="#000000" d="M 692.5,-0.5 C 698.167,-0.5 703.833,-0.5 709.5,-0.5C 709.5,26.8333 709.5,54.1667 709.5,81.5C 703.833,81.5 698.167,81.5 692.5,81.5C 692.5,54.1667 692.5,26.8333 692.5,-0.5 Z"/></g>
<g><path style="opacity:0.959" fill="#000000" d="M 790.5,-0.5 C 803.5,-0.5 816.5,-0.5 829.5,-0.5C 848.854,5.52856 855.687,18.5286 850,38.5C 845.106,48.0357 837.273,53.2024 826.5,54C 819.842,54.4996 813.175,54.6663 806.5,54.5C 806.5,63.5 806.5,72.5 806.5,81.5C 801.167,81.5 795.833,81.5 790.5,81.5C 790.5,54.1667 790.5,26.8333 790.5,-0.5 Z M 806.5,12.5 C 813.563,12.2122 820.563,12.7122 827.5,14C 835.214,18.605 837.381,25.105 834,33.5C 831.445,37.8667 827.612,40.3667 822.5,41C 817.177,41.4994 811.844,41.666 806.5,41.5C 806.5,31.8333 806.5,22.1667 806.5,12.5 Z"/></g>
<g><path style="opacity:0.932" fill="#000000" d="M 927.5,-0.5 C 932.833,-0.5 938.167,-0.5 943.5,-0.5C 943.5,26.8333 943.5,54.1667 943.5,81.5C 938.167,81.5 932.833,81.5 927.5,81.5C 927.5,54.1667 927.5,26.8333 927.5,-0.5 Z"/></g>
<g><path style="opacity:0.965" fill="#000000" d="M 956.5,-0.5 C 962.833,-0.5 969.167,-0.5 975.5,-0.5C 983.728,18.9551 992.228,38.2884 1001,57.5C 1008.91,38.0255 1017.07,18.6922 1025.5,-0.5C 1031.83,-0.5 1038.17,-0.5 1044.5,-0.5C 1044.5,26.8333 1044.5,54.1667 1044.5,81.5C 1039.5,81.5 1034.5,81.5 1029.5,81.5C 1029.67,63.4969 1029.5,45.4969 1029,27.5C 1021.47,45.0857 1014.14,62.7524 1007,80.5C 1002.88,81.7977 998.715,81.7977 994.5,80.5C 986.724,62.6147 979.224,44.6147 972,26.5C 971.5,44.8303 971.333,63.1636 971.5,81.5C 966.5,81.5 961.5,81.5 956.5,81.5C 956.5,54.1667 956.5,26.8333 956.5,-0.5 Z"/></g>
<g><path style="opacity:0.988" fill="#e22a07" d="M 380.5,0.5 C 380.5,36.1667 380.5,71.8333 380.5,107.5C 379.551,109.777 378.218,111.777 376.5,113.5C 376.5,76.1667 376.5,38.8333 376.5,1.5C 377.833,1.16667 379.167,0.833333 380.5,0.5 Z"/></g>
<g><path style="opacity:0.993" fill="#e42b05" d="M 380.5,0.5 C 381.5,0.5 382.5,0.5 383.5,0.5C 383.5,35.1667 383.5,69.8333 383.5,104.5C 382.833,105.833 381.833,106.833 380.5,107.5C 380.5,71.8333 380.5,36.1667 380.5,0.5 Z"/></g>
<g><path style="opacity:0.989" fill="#e94114" d="M 401.5,0.5 C 403.421,1.36268 405.421,2.02935 407.5,2.5C 407.5,41.1667 407.5,79.8333 407.5,118.5C 405.533,115.523 403.533,112.523 401.5,109.5C 401.5,73.1667 401.5,36.8333 401.5,0.5 Z"/></g>
<g><path style="opacity:0.988" fill="#fcb14c" d="M 525.5,0.5 C 525.5,30.8333 525.5,61.1667 525.5,91.5C 522.193,89.8466 518.86,88.1799 515.5,86.5C 515.5,58.8333 515.5,31.1667 515.5,3.5C 518.505,1.7234 521.838,0.723405 525.5,0.5 Z"/></g>
<g><path style="opacity:0.987" fill="#fdc441" d="M 542.5,0.5 C 545.916,0.527505 548.916,1.52751 551.5,3.5C 551.5,42.1667 551.5,80.8333 551.5,119.5C 548.759,115.03 545.759,110.696 542.5,106.5C 542.5,71.1667 542.5,35.8333 542.5,0.5 Z"/></g>
<g><path style="opacity:0.987" fill="#1d3b8c" d="M 103.5,1.5 C 103.5,30.5 103.5,59.5 103.5,88.5C 98.2361,87.2014 93.5694,84.8681 89.5,81.5C 89.5,57.1667 89.5,32.8333 89.5,8.5C 93.5694,5.1319 98.2361,2.79857 103.5,1.5 Z"/></g>
<g><path style="opacity:0.988" fill="#1e4e8d" d="M 129.5,1.5 C 132.327,2.10841 134.993,3.10841 137.5,4.5C 137.5,31.5 137.5,58.5 137.5,85.5C 134.993,86.8916 132.327,87.8916 129.5,88.5C 129.5,59.5 129.5,30.5 129.5,1.5 Z"/></g>
<g><path style="opacity:0.984" fill="#dd2909" d="M 376.5,1.5 C 376.5,38.8333 376.5,76.1667 376.5,113.5C 373.193,119.777 370.193,126.11 367.5,132.5C 367.5,90.1667 367.5,47.8333 367.5,5.5C 370.382,3.89207 373.382,2.55874 376.5,1.5 Z"/></g>
<g><path style="opacity:0.984" fill="#ea4617" d="M 407.5,2.5 C 408.833,3.16667 410.167,3.83333 411.5,4.5C 411.5,45.1667 411.5,85.8333 411.5,126.5C 409.659,124.151 408.326,121.485 407.5,118.5C 407.5,79.8333 407.5,41.1667 407.5,2.5 Z"/></g>
<g><path style="opacity:0.985" fill="#fcac4f" d="M 515.5,3.5 C 515.5,31.1667 515.5,58.8333 515.5,86.5C 513.517,85.5294 511.517,84.5294 509.5,83.5C 509.5,57.8333 509.5,32.1667 509.5,6.5C 511.216,4.97516 513.216,3.97516 515.5,3.5 Z"/></g>
<g><path style="opacity:0.985" fill="#fdc83f" d="M 551.5,3.5 C 552.167,3.5 552.833,3.5 553.5,3.5C 553.5,43.5 553.5,83.5 553.5,123.5C 552.326,122.486 551.66,121.153 551.5,119.5C 551.5,80.8333 551.5,42.1667 551.5,3.5 Z"/></g>
<g><path style="opacity:0.981" fill="#fecb3c" d="M 553.5,3.5 C 556.167,5.16667 558.833,6.83333 561.5,8.5C 561.5,105.833 561.5,203.167 561.5,300.5C 559.516,303.164 556.849,304.831 553.5,305.5C 553.5,265.833 553.5,226.167 553.5,186.5C 559.849,170.493 561.349,154.16 558,137.5C 556.793,132.712 555.293,128.045 553.5,123.5C 553.5,83.5 553.5,43.5 553.5,3.5 Z"/></g>
<g><path style="opacity:0.983" fill="#1f548e" d="M 137.5,4.5 C 140.135,5.81094 142.469,7.47761 144.5,9.5C 144.5,33.1667 144.5,56.8333 144.5,80.5C 142.469,82.5224 140.135,84.1891 137.5,85.5C 137.5,58.5 137.5,31.5 137.5,4.5 Z"/></g>
<g><path style="opacity:0.981" fill="#eb4919" d="M 411.5,4.5 C 412.167,4.83333 412.833,5.16667 413.5,5.5C 413.5,47.8333 413.5,90.1667 413.5,132.5C 412.262,130.786 411.595,128.786 411.5,126.5C 411.5,85.8333 411.5,45.1667 411.5,4.5 Z"/></g>
<g><path style="opacity:0.986" fill="#d7280b" d="M 367.5,5.5 C 367.5,47.8333 367.5,90.1667 367.5,132.5C 363.5,147.5 363.5,162.5 367.5,177.5C 367.5,219.833 367.5,262.167 367.5,304.5C 364.216,302.883 361.549,300.55 359.5,297.5C 359.5,202.167 359.5,106.833 359.5,11.5C 361.884,9.11528 364.55,7.11528 367.5,5.5 Z"/></g>
<g><path style="opacity:0.978" fill="#eb4e1c" d="M 413.5,5.5 C 416.432,6.79973 418.766,8.79973 420.5,11.5C 420.5,65.1667 420.5,118.833 420.5,172.5C 418.583,169.196 417.416,165.529 417,161.5C 416.869,151.689 415.703,142.023 413.5,132.5C 413.5,90.1667 413.5,47.8333 413.5,5.5 Z"/></g>
<g><path style="opacity:0.98" fill="#fca952" d="M 509.5,6.5 C 509.5,32.1667 509.5,57.8333 509.5,83.5C 508.5,83.1667 507.833,82.5 507.5,81.5C 507.5,57.1667 507.5,32.8333 507.5,8.5C 507.833,7.5 508.5,6.83333 509.5,6.5 Z"/></g>
<g><path style="opacity:0.967" fill="#1d358c" d="M 89.5,8.5 C 89.5,32.8333 89.5,57.1667 89.5,81.5C 81.0525,76.0441 75.7192,68.3775 73.5,58.5C 73.5,49.5 73.5,40.5 73.5,31.5C 75.7192,21.6225 81.0525,13.9559 89.5,8.5 Z"/></g>
<g><path style="opacity:0.98" fill="#fca653" d="M 507.5,8.5 C 507.5,32.8333 507.5,57.1667 507.5,81.5C 504.573,80.2427 502.239,78.2427 500.5,75.5C 500.5,55.1667 500.5,34.8333 500.5,14.5C 502.239,11.7573 504.573,9.75731 507.5,8.5 Z"/></g>
<g><path style="opacity:0.994" fill="#fed039" d="M 561.5,8.5 C 563.833,10.1667 565.833,12.1667 567.5,14.5C 567.5,108.167 567.5,201.833 567.5,295.5C 566.089,297.914 564.089,299.581 561.5,300.5C 561.5,203.167 561.5,105.833 561.5,8.5 Z"/></g>
<g><path style="opacity:0.976" fill="#1f5a8f" d="M 144.5,9.5 C 147.833,10.8333 150.167,13.1667 151.5,16.5C 151.5,35.5 151.5,54.5 151.5,73.5C 150.167,76.8333 147.833,79.1667 144.5,80.5C 144.5,56.8333 144.5,33.1667 144.5,9.5 Z"/></g>
<g><path style="opacity:0.994" fill="#3bd180" d="M 223.5,10.5 C 223.5,106.5 223.5,202.5 223.5,298.5C 221.5,297.833 220.167,296.5 219.5,294.5C 219.5,201.5 219.5,108.5 219.5,15.5C 220.08,13.2512 221.413,11.5846 223.5,10.5 Z"/></g>
<g><path style="opacity:0.994" fill="#d1270d" d="M 359.5,11.5 C 359.5,106.833 359.5,202.167 359.5,297.5C 355.7,295.037 353.033,291.704 351.5,287.5C 351.5,199.167 351.5,110.833 351.5,22.5C 353.4,18.2679 356.067,14.6012 359.5,11.5 Z"/></g>
<g><path style="opacity:0.99" fill="#ec5420" d="M 420.5,11.5 C 422.923,12.9501 424.923,14.9501 426.5,17.5C 426.5,72.8333 426.5,128.167 426.5,183.5C 423.742,180.322 421.742,176.655 420.5,172.5C 420.5,118.833 420.5,65.1667 420.5,11.5 Z"/></g>
<g><path style="opacity:0.993" fill="#fed338" d="M 567.5,14.5 C 568.5,14.8333 569.167,15.5 569.5,16.5C 569.5,108.5 569.5,200.5 569.5,292.5C 569.573,294.027 568.906,295.027 567.5,295.5C 567.5,201.833 567.5,108.167 567.5,14.5 Z"/></g>
<g><path style="opacity:0.995" fill="#3ccc82" d="M 219.5,15.5 C 219.5,108.5 219.5,201.5 219.5,294.5C 217.457,293.421 216.124,291.754 215.5,289.5C 215.5,199.833 215.5,110.167 215.5,20.5C 216.08,18.2512 217.413,16.5846 219.5,15.5 Z"/></g>
<g><path style="opacity:0.968" fill="#fa9f50" d="M 500.5,14.5 C 500.5,34.8333 500.5,55.1667 500.5,75.5C 498.025,73.2297 496.025,70.563 494.5,67.5C 494.5,52.5 494.5,37.5 494.5,22.5C 496.025,19.437 498.025,16.7703 500.5,14.5 Z"/></g>
<g><path style="opacity:0.959" fill="#206091" d="M 151.5,16.5 C 153.796,18.4006 155.629,20.7339 157,23.5C 158.009,25.0249 158.509,26.6916 158.5,28.5C 158.5,39.5 158.5,50.5 158.5,61.5C 157.186,66.1323 154.853,70.1323 151.5,73.5C 151.5,54.5 151.5,35.5 151.5,16.5 Z"/></g>
<g><path style="opacity:0.992" fill="#fed735" d="M 569.5,16.5 C 574.097,22.3664 577.097,29.0331 578.5,36.5C 578.5,115.5 578.5,194.5 578.5,273.5C 577.347,280.802 574.347,287.136 569.5,292.5C 569.5,200.5 569.5,108.5 569.5,16.5 Z"/></g>
<g><path style="opacity:0.989" fill="#ed5a24" d="M 426.5,17.5 C 428.223,19.2528 429.723,21.2528 431,23.5C 432.009,25.0249 432.509,26.6916 432.5,28.5C 432.5,82.1667 432.5,135.833 432.5,189.5C 430.167,187.833 428.167,185.833 426.5,183.5C 426.5,128.167 426.5,72.8333 426.5,17.5 Z"/></g>
<g><path style="opacity:0.931" fill="#000000" d="M 754.5,18.5 C 764.582,18.1202 771.749,22.4535 776,31.5C 777.456,48.0966 777.956,64.7633 777.5,81.5C 772.167,81.5 766.833,81.5 761.5,81.5C 761.667,67.496 761.5,53.496 761,39.5C 759.008,34.6641 755.341,32.3308 750,32.5C 743.582,32.3671 739.582,35.3671 738,41.5C 737.5,54.8292 737.333,68.1625 737.5,81.5C 732.167,81.5 726.833,81.5 721.5,81.5C 721.5,60.8333 721.5,40.1667 721.5,19.5C 726.5,19.5 731.5,19.5 736.5,19.5C 736.335,22.8499 736.502,26.1832 737,29.5C 737.883,26.8976 739.383,24.7309 741.5,23C 745.614,20.4607 749.947,18.9607 754.5,18.5 Z"/></g>
<g><path style="opacity:0.937" fill="#000000" d="M 886.5,18.5 C 911.392,20.9107 921.892,34.5774 918,59.5C 912.046,78.4036 899.213,85.9036 879.5,82C 867.022,78.5206 859.855,70.3539 858,57.5C 855.168,41.001 861.002,28.8343 875.5,21C 879.28,20.082 882.946,19.2487 886.5,18.5 Z M 884.5,31.5 C 894.057,30.8587 899.891,35.192 902,44.5C 904.209,53.6293 902.042,61.4627 895.5,68C 883.463,72.558 876.296,68.3914 874,55.5C 871.861,44.7968 875.361,36.7968 884.5,31.5 Z"/></g>
<g><path style="opacity:0.935" fill="#000000" d="M 1081.5,18.5 C 1092.59,17.7984 1101.42,21.7984 1108,30.5C 1109.46,47.4303 1109.96,64.4303 1109.5,81.5C 1104.5,81.5 1099.5,81.5 1094.5,81.5C 1094.66,79.1432 1094.5,76.8098 1094,74.5C 1091.36,78.1283 1087.86,80.6283 1083.5,82C 1073.11,84.5723 1064.28,82.0723 1057,74.5C 1051.48,61.7001 1054.98,52.5334 1067.5,47C 1075.88,45.608 1084.21,44.108 1092.5,42.5C 1094.27,35.2368 1091.27,31.2368 1083.5,30.5C 1078.34,31.1693 1074.34,33.6693 1071.5,38C 1054.57,40.111 1052.24,35.4444 1064.5,24C 1069.94,21.0648 1075.61,19.2315 1081.5,18.5 Z M 1091.5,53.5 C 1095.68,63.7405 1092.02,69.7405 1080.5,71.5C 1075.05,71.4536 1071.38,68.9536 1069.5,64C 1070.08,61.5007 1071.42,59.5007 1073.5,58C 1079.54,56.1699 1085.54,54.6699 1091.5,53.5 Z"/></g>
<g><path style="opacity:0.939" fill="#000000" d="M 1153.5,18.5 C 1169.3,18.972 1178.46,26.972 1181,42.5C 1182.72,53.0966 1181.05,63.0966 1176,72.5C 1167,82.7115 1156.17,85.2115 1143.5,80C 1141.67,78.1667 1139.83,76.3333 1138,74.5C 1137.5,84.4944 1137.33,94.4944 1137.5,104.5C 1132.17,104.5 1126.83,104.5 1121.5,104.5C 1121.5,76.1667 1121.5,47.8333 1121.5,19.5C 1126.5,19.5 1131.5,19.5 1136.5,19.5C 1136.33,22.8499 1136.5,26.1832 1137,29.5C 1140.66,22.9296 1146.16,19.2629 1153.5,18.5 Z M 1148.5,31.5 C 1157.81,31.6391 1163.31,36.3057 1165,45.5C 1166.36,53.5529 1164.53,60.7196 1159.5,67C 1146.76,72.3797 1139.26,68.2131 1137,54.5C 1135.91,46.574 1138.08,39.7407 1143.5,34C 1145.31,33.2432 1146.98,32.4098 1148.5,31.5 Z"/></g>
<g><path style="opacity:0.928" fill="#000000" d="M 1213.5,18.5 C 1223.03,18.0616 1231.19,21.0616 1238,27.5C 1240.13,30.5254 1240.97,33.692 1240.5,37C 1236.47,37.3028 1232.47,37.8028 1228.5,38.5C 1223.9,31.4657 1217.57,29.299 1209.5,32C 1204.01,36.573 1204.68,40.2397 1211.5,43C 1218.56,44.4127 1225.56,46.0793 1232.5,48C 1242.79,53.6566 1245.29,61.8233 1240,72.5C 1237.06,76.4265 1233.23,79.2598 1228.5,81C 1217.93,83.4689 1207.6,82.8022 1197.5,79C 1191.74,75.4156 1188.74,70.2489 1188.5,63.5C 1192.88,63.7079 1197.21,63.3745 1201.5,62.5C 1203.6,64.4888 1205.6,66.6554 1207.5,69C 1212.05,70.5452 1216.71,70.8785 1221.5,70C 1226.7,67.8623 1227.7,64.529 1224.5,60C 1218.01,57.7012 1211.34,56.0346 1204.5,55C 1192.35,51.5253 1187.85,43.692 1191,31.5C 1193.8,25.1747 1198.63,21.3413 1205.5,20C 1208.36,19.8171 1211.03,19.3171 1213.5,18.5 Z"/></g>
<g><path style="opacity:0.994" fill="#3ec884" d="M 215.5,20.5 C 215.5,110.167 215.5,199.833 215.5,289.5C 213.992,287.819 212.992,285.819 212.5,283.5C 212.5,197.833 212.5,112.167 212.5,26.5C 212.654,24.0301 213.654,22.0301 215.5,20.5 Z"/></g>
<g><path style="opacity:0.989" fill="#cb2610" d="M 351.5,22.5 C 351.5,110.833 351.5,199.167 351.5,287.5C 347.34,280.029 344.34,272.029 342.5,263.5C 342.5,191.167 342.5,118.833 342.5,46.5C 344.357,39.4274 346.524,32.4274 349,25.5C 349.377,24.0577 350.21,23.0577 351.5,22.5 Z"/></g>
<g><path style="opacity:0.928" fill="#fa9a4d" d="M 494.5,22.5 C 494.5,37.5 494.5,52.5 494.5,67.5C 492.597,64.4701 491.263,61.1368 490.5,57.5C 490.5,49.1667 490.5,40.8333 490.5,32.5C 490.872,28.7029 492.206,25.3695 494.5,22.5 Z"/></g>
<g><path style="opacity:0.991" fill="#3fc485" d="M 212.5,26.5 C 212.5,112.167 212.5,197.833 212.5,283.5C 210.733,281.208 209.733,278.542 209.5,275.5C 209.5,195.167 209.5,114.833 209.5,34.5C 209.733,31.4582 210.733,28.7916 212.5,26.5 Z"/></g>
<g><path style="opacity:0.868" fill="#216492" d="M 158.5,28.5 C 160.917,33.6087 161.917,39.1087 161.5,45C 161.917,50.8913 160.917,56.3913 158.5,61.5C 158.5,50.5 158.5,39.5 158.5,28.5 Z"/></g>
<g><path style="opacity:0.986" fill="#ef6028" d="M 432.5,28.5 C 435.072,34.216 437.072,40.216 438.5,46.5C 438.5,95.8333 438.5,145.167 438.5,194.5C 436.46,192.823 434.46,191.156 432.5,189.5C 432.5,135.833 432.5,82.1667 432.5,28.5 Z"/></g>
<g><path style="opacity:0.798" fill="#1d308c" d="M 73.5,31.5 C 73.5,40.5 73.5,49.5 73.5,58.5C 72.058,54.2253 71.058,49.7253 70.5,45C 70.9585,40.2467 71.9585,35.7467 73.5,31.5 Z"/></g>
<g><path style="opacity:0.71" fill="#f9974b" d="M 490.5,32.5 C 490.5,40.8333 490.5,49.1667 490.5,57.5C 487.833,49.1667 487.833,40.8333 490.5,32.5 Z"/></g>
<g><path style="opacity:0.987" fill="#40be87" d="M 209.5,34.5 C 209.5,114.833 209.5,195.167 209.5,275.5C 207.261,270.784 205.595,265.784 204.5,260.5C 204.5,190.167 204.5,119.833 204.5,49.5C 205.595,44.2159 207.261,39.2159 209.5,34.5 Z"/></g>
<g><path style="opacity:0.989" fill="#fedc32" d="M 578.5,36.5 C 580.739,41.2159 582.405,46.2159 583.5,51.5C 583.5,120.5 583.5,189.5 583.5,258.5C 582.405,263.784 580.739,268.784 578.5,273.5C 578.5,194.5 578.5,115.5 578.5,36.5 Z"/></g>
<g><path style="opacity:0.983" fill="#f0642a" d="M 438.5,46.5 C 439.738,48.2143 440.405,50.2143 440.5,52.5C 440.5,100.5 440.5,148.5 440.5,196.5C 439.5,196.167 438.833,195.5 438.5,194.5C 438.5,145.167 438.5,95.8333 438.5,46.5 Z"/></g>
<g><path style="opacity:0.983" fill="#42b88a" d="M 204.5,49.5 C 204.5,119.833 204.5,190.167 204.5,260.5C 202.261,255.784 200.595,250.784 199.5,245.5C 199.5,185.167 199.5,124.833 199.5,64.5C 200.595,59.2159 202.261,54.2159 204.5,49.5 Z"/></g>
<g><path style="opacity:0.984" fill="#c62512" d="M 342.5,46.5 C 342.5,118.833 342.5,191.167 342.5,263.5C 340.928,260.785 339.928,257.785 339.5,254.5C 339.5,188.167 339.5,121.833 339.5,55.5C 339.928,52.2154 340.928,49.2154 342.5,46.5 Z"/></g>
<g><path style="opacity:0.986" fill="#fede30" d="M 583.5,51.5 C 585.072,54.2154 586.072,57.2154 586.5,60.5C 586.5,123.5 586.5,186.5 586.5,249.5C 586.072,252.785 585.072,255.785 583.5,258.5C 583.5,189.5 583.5,120.5 583.5,51.5 Z"/></g>
<g><path style="opacity:0.983" fill="#f0682c" d="M 440.5,52.5 C 442.405,56.2157 443.739,60.2157 444.5,64.5C 444.5,109.5 444.5,154.5 444.5,199.5C 442.77,198.974 441.436,197.974 440.5,196.5C 440.5,148.5 440.5,100.5 440.5,52.5 Z"/></g>
<g><path style="opacity:0.982" fill="#c42413" d="M 339.5,55.5 C 339.5,121.833 339.5,188.167 339.5,254.5C 337.129,249.059 335.129,243.392 333.5,237.5C 333.5,182.5 333.5,127.5 333.5,72.5C 335.129,66.6075 337.129,60.9409 339.5,55.5 Z"/></g>
<g><path style="opacity:0.984" fill="#ffe32e" d="M 586.5,60.5 C 589.25,68.007 592.583,75.3404 596.5,82.5C 596.5,130.833 596.5,179.167 596.5,227.5C 592.583,234.66 589.25,241.993 586.5,249.5C 586.5,186.5 586.5,123.5 586.5,60.5 Z"/></g>
<g><path style="opacity:0.984" fill="#43b18d" d="M 199.5,64.5 C 199.5,124.833 199.5,185.167 199.5,245.5C 197.853,241.576 196.186,237.576 194.5,233.5C 194.5,181.167 194.5,128.833 194.5,76.5C 196.186,72.4237 197.853,68.4237 199.5,64.5 Z"/></g>
<g><path style="opacity:0.984" fill="#f16d2f" d="M 444.5,64.5 C 446.461,69.0986 448.461,73.7653 450.5,78.5C 450.5,120.833 450.5,163.167 450.5,205.5C 448.167,203.833 446.167,201.833 444.5,199.5C 444.5,154.5 444.5,109.5 444.5,64.5 Z"/></g>
<g><path style="opacity:0.986" fill="#be2315" d="M 333.5,72.5 C 333.5,127.5 333.5,182.5 333.5,237.5C 330.766,232.37 327.766,227.37 324.5,222.5C 324.5,177.5 324.5,132.5 324.5,87.5C 327.766,82.63 330.766,77.63 333.5,72.5 Z"/></g>
<g><path style="opacity:0.985" fill="#45ad8f" d="M 194.5,76.5 C 194.5,128.833 194.5,181.167 194.5,233.5C 193.326,232.486 192.66,231.153 192.5,229.5C 192.5,179.833 192.5,130.167 192.5,80.5C 192.66,78.847 193.326,77.5137 194.5,76.5 Z"/></g>
<g><path style="opacity:0.988" fill="#f27333" d="M 450.5,78.5 C 452.735,81.2911 454.735,84.2911 456.5,87.5C 456.5,128.5 456.5,169.5 456.5,210.5C 454.475,208.804 452.475,207.137 450.5,205.5C 450.5,163.167 450.5,120.833 450.5,78.5 Z"/></g>
<g><path style="opacity:0.987" fill="#45aa90" d="M 192.5,80.5 C 192.5,130.167 192.5,179.833 192.5,229.5C 191.026,228.564 190.026,227.23 189.5,225.5C 189.5,178.5 189.5,131.5 189.5,84.5C 190.026,82.7697 191.026,81.4363 192.5,80.5 Z"/></g>
<g><path style="opacity:0.986" fill="#46a591" d="M 189.5,84.5 C 189.5,131.5 189.5,178.5 189.5,225.5C 187.782,223.777 186.449,221.777 185.5,219.5C 185.5,176.167 185.5,132.833 185.5,89.5C 186.864,87.8089 188.197,86.1423 189.5,84.5 Z"/></g>
<g><path style="opacity:0.981" fill="#ffe92a" d="M 596.5,82.5 C 608.341,96.8397 621.674,109.673 636.5,121C 649.478,134.406 653.644,150.239 649,168.5C 647.194,173.446 644.861,178.112 642,182.5C 634.127,191.041 625.627,198.875 616.5,206C 609.233,212.762 602.566,219.928 596.5,227.5C 596.5,179.167 596.5,130.833 596.5,82.5 Z"/></g>
<g><path style="opacity:0.988" fill="#b92217" d="M 324.5,87.5 C 324.5,132.5 324.5,177.5 324.5,222.5C 322.529,220.192 320.529,217.858 318.5,215.5C 318.5,175.167 318.5,134.833 318.5,94.5C 320.273,91.9401 322.273,89.6068 324.5,87.5 Z"/></g>
<g><path style="opacity:0.986" fill="#f37736" d="M 456.5,87.5 C 457.5,87.8333 458.167,88.5 458.5,89.5C 458.5,130.5 458.5,171.5 458.5,212.5C 457.5,212.167 456.833,211.5 456.5,210.5C 456.5,169.5 456.5,128.5 456.5,87.5 Z"/></g>
<g><path style="opacity:0.99" fill="#489f94" d="M 185.5,89.5 C 185.5,132.833 185.5,176.167 185.5,219.5C 183.5,218.167 181.833,216.5 180.5,214.5C 180.5,174.833 180.5,135.167 180.5,95.5C 182.196,93.4752 183.863,91.4752 185.5,89.5 Z"/></g>
<g><path style="opacity:0.985" fill="#f47937" d="M 458.5,89.5 C 459.401,90.2905 460.068,91.2905 460.5,92.5C 460.5,133.167 460.5,173.833 460.5,214.5C 459.5,214.167 458.833,213.5 458.5,212.5C 458.5,171.5 458.5,130.5 458.5,89.5 Z"/></g>
<g><path style="opacity:0.987" fill="#f47b39" d="M 460.5,92.5 C 461.5,92.8333 462.167,93.5 462.5,94.5C 462.5,135.167 462.5,175.833 462.5,216.5C 461.5,216.167 460.833,215.5 460.5,214.5C 460.5,173.833 460.5,133.167 460.5,92.5 Z"/></g>
<g><path style="opacity:0.99" fill="#b62219" d="M 318.5,94.5 C 318.5,134.833 318.5,175.167 318.5,215.5C 317.5,215.167 316.833,214.5 316.5,213.5C 316.5,174.5 316.5,135.5 316.5,96.5C 316.833,95.5 317.5,94.8333 318.5,94.5 Z"/></g>
<g><path style="opacity:0.987" fill="#f4803c" d="M 462.5,94.5 C 464.858,96.5293 467.192,98.5293 469.5,100.5C 469.5,141.833 469.5,183.167 469.5,224.5C 467.196,221.859 464.862,219.192 462.5,216.5C 462.5,175.833 462.5,135.167 462.5,94.5 Z"/></g>
<g><path style="opacity:0.992" fill="#499996" d="M 180.5,95.5 C 180.5,135.167 180.5,174.833 180.5,214.5C 178.833,213.167 177.167,211.833 175.5,210.5C 175.5,173.5 175.5,136.5 175.5,99.5C 177.142,98.197 178.809,96.8637 180.5,95.5 Z"/></g>
<g><path style="opacity:0.977" fill="#b1211a" d="M 316.5,96.5 C 316.5,135.5 316.5,174.5 316.5,213.5C 304.906,204.078 293.74,194.078 283,183.5C 270.333,164.5 270.333,145.5 283,126.5C 293.74,115.922 304.906,105.922 316.5,96.5 Z"/></g>
<g><path style="opacity:0.984" fill="#4b9299" d="M 175.5,99.5 C 175.5,136.5 175.5,173.5 175.5,210.5C 173.5,209.167 171.833,207.5 170.5,205.5C 170.5,171.833 170.5,138.167 170.5,104.5C 171.833,102.5 173.5,100.833 175.5,99.5 Z"/></g>
<g><path style="opacity:0.988" fill="#f68640" d="M 469.5,100.5 C 471.833,102.167 473.833,104.167 475.5,106.5C 475.5,149.167 475.5,191.833 475.5,234.5C 473.515,231.202 471.515,227.869 469.5,224.5C 469.5,183.167 469.5,141.833 469.5,100.5 Z"/></g>
<g><path style="opacity:0.972" fill="#4c8c9b" d="M 170.5,104.5 C 170.5,138.167 170.5,171.833 170.5,205.5C 162.204,198.374 154.037,191.041 146,183.5C 133.333,164.5 133.333,145.5 146,126.5C 153.916,118.808 162.082,111.475 170.5,104.5 Z"/></g>
<g><path style="opacity:0.985" fill="#f78b43" d="M 475.5,106.5 C 477.23,107.026 478.564,108.026 479.5,109.5C 479.5,154.167 479.5,198.833 479.5,243.5C 477.796,240.744 476.463,237.744 475.5,234.5C 475.5,191.833 475.5,149.167 475.5,106.5 Z"/></g>
<g><path style="opacity:0.978" fill="#1d248c" d="M 44.5,109.5 C 44.5,144.833 44.5,180.167 44.5,215.5C 32.2388,205.411 20.4055,194.744 9,183.5C 4.55929,176.985 1.39263,169.985 -0.5,162.5C -0.5,157.5 -0.5,152.5 -0.5,147.5C 5.29316,124.047 20.2932,111.381 44.5,109.5 Z"/></g>
<g><path style="opacity:0.988" fill="#1d288c" d="M 44.5,109.5 C 49.6133,109.431 54.6133,110.097 59.5,111.5C 59.5,153.5 59.5,195.5 59.5,237.5C 55.3148,229.642 50.3148,222.308 44.5,215.5C 44.5,180.167 44.5,144.833 44.5,109.5 Z"/></g>
<g><path style="opacity:0.986" fill="#f88e45" d="M 479.5,109.5 C 480.5,109.833 481.167,110.5 481.5,111.5C 481.5,157.5 481.5,203.5 481.5,249.5C 480.262,247.786 479.595,245.786 479.5,243.5C 479.5,198.833 479.5,154.167 479.5,109.5 Z"/></g>
<g><path style="opacity:0.905" fill="#000000" d="M 1243.5,113.5 C 1243.5,116.167 1243.5,118.833 1243.5,121.5C 1242.68,123.144 1241.35,124.31 1239.5,125C 1228.25,127.258 1224.25,123.091 1227.5,112.5C 1233.07,108.361 1238.4,108.694 1243.5,113.5 Z"/></g>
<g><path style="opacity:0.985" fill="#1d2e8c" d="M 59.5,111.5 C 64.8219,113.157 69.4885,115.823 73.5,119.5C 73.5,172.5 73.5,225.5 73.5,278.5C 68.4626,265.057 63.796,251.39 59.5,237.5C 59.5,195.5 59.5,153.5 59.5,111.5 Z"/></g>
<g><path style="opacity:0.987" fill="#f89247" d="M 481.5,111.5 C 483.525,113.196 485.525,114.863 487.5,116.5C 487.5,167.167 487.5,217.833 487.5,268.5C 485.13,262.384 483.13,256.051 481.5,249.5C 481.5,203.5 481.5,157.5 481.5,111.5 Z"/></g>
<g><path style="opacity:0.923" fill="#000000" d="M 692.5,113.5 C 698.167,113.5 703.833,113.5 709.5,113.5C 709.333,125.505 709.5,137.505 710,149.5C 720.5,137.667 731,125.833 741.5,114C 748.167,113.333 754.833,113.333 761.5,114C 750.647,126.019 739.98,138.185 729.5,150.5C 740.167,165.167 750.833,179.833 761.5,194.5C 755.193,195.664 748.859,195.831 742.5,195C 733.967,184.1 725.8,172.933 718,161.5C 714.962,164.203 712.295,167.203 710,170.5C 709.5,178.827 709.334,187.16 709.5,195.5C 703.833,195.5 698.167,195.5 692.5,195.5C 692.5,168.167 692.5,140.833 692.5,113.5 Z"/></g>
<g><path style="opacity:0.929" fill="#000000" d="M 830.5,113.5 C 835.833,113.5 841.167,113.5 846.5,113.5C 846.5,140.833 846.5,168.167 846.5,195.5C 841.167,195.5 835.833,195.5 830.5,195.5C 830.5,168.167 830.5,140.833 830.5,113.5 Z"/></g>
<g><path style="opacity:0.953" fill="#000000" d="M 923.5,113.5 C 928.5,113.5 933.5,113.5 938.5,113.5C 938.334,123.172 938.5,132.839 939,142.5C 945.654,133.288 954.487,130.455 965.5,134C 977.988,140.119 983.988,150.285 983.5,164.5C 983.805,174.758 980.472,183.591 973.5,191C 964.228,197.388 954.561,198.055 944.5,193C 942.291,191.127 940.458,188.96 939,186.5C 938.502,189.482 938.335,192.482 938.5,195.5C 933.5,195.5 928.5,195.5 923.5,195.5C 923.5,168.167 923.5,140.833 923.5,113.5 Z M 949.5,145.5 C 961.538,145.875 967.538,152.209 967.5,164.5C 967.634,172.639 964.301,178.806 957.5,183C 946.653,184.988 940.487,180.488 939,169.5C 936.881,158.759 940.381,150.759 949.5,145.5 Z"/></g>
<g><path style="opacity:0.983" fill="#f9974a" d="M 487.5,116.5 C 488.833,117.167 489.833,118.167 490.5,119.5C 490.5,172.167 490.5,224.833 490.5,277.5C 488.928,274.785 487.928,271.785 487.5,268.5C 487.5,217.833 487.5,167.167 487.5,116.5 Z"/></g>
<g><path style="opacity:0.99" fill="#1d358c" d="M 73.5,119.5 C 82.7332,126.962 88.0665,136.629 89.5,148.5C 89.5,199.5 89.5,250.5 89.5,301.5C 81.4426,295.715 76.1093,288.049 73.5,278.5C 73.5,225.5 73.5,172.5 73.5,119.5 Z"/></g>
<g><path style="opacity:0.988" fill="#fa9a4d" d="M 490.5,119.5 C 491.872,120.512 493.205,121.512 494.5,122.5C 494.5,177.5 494.5,232.5 494.5,287.5C 492.597,284.47 491.263,281.137 490.5,277.5C 490.5,224.833 490.5,172.167 490.5,119.5 Z"/></g>
<g><path style="opacity:0.99" fill="#fa9f50" d="M 494.5,122.5 C 496.853,124.86 498.853,127.527 500.5,130.5C 500.5,185.5 500.5,240.5 500.5,295.5C 498.025,293.23 496.025,290.563 494.5,287.5C 494.5,232.5 494.5,177.5 494.5,122.5 Z"/></g>
<g><path style="opacity:0.987" fill="#fca553" d="M 500.5,130.5 C 506.096,138.548 508.43,147.548 507.5,157.5C 507.5,205.5 507.5,253.5 507.5,301.5C 504.553,300.219 502.219,298.219 500.5,295.5C 500.5,240.5 500.5,185.5 500.5,130.5 Z"/></g>
<g><path style="opacity:0.935" fill="#000000" d="M 786.5,132.5 C 804.818,131.018 816.318,139.018 821,156.5C 824.11,184.72 811.61,197.886 783.5,196C 770.451,192.951 762.951,184.784 761,171.5C 758.055,150.669 766.555,137.669 786.5,132.5 Z M 786.5,145.5 C 796.81,144.063 802.976,148.396 805,158.5C 807.209,167.629 805.042,175.463 798.5,182C 786.766,186.043 779.6,181.876 777,169.5C 775.035,159.281 778.201,151.281 786.5,145.5 Z"/></g>
<g><path style="opacity:0.938" fill="#000000" d="M 879.5,132.5 C 887.571,132.067 895.237,133.567 902.5,137C 905.04,139.205 907.207,141.705 909,144.5C 910.457,161.43 910.957,178.43 910.5,195.5C 905.5,195.5 900.5,195.5 895.5,195.5C 895.663,193.143 895.497,190.81 895,188.5C 892.245,192.577 888.412,195.077 883.5,196C 874.093,198.108 865.926,195.941 859,189.5C 853.988,180.958 854.488,172.792 860.5,165C 862.888,163.139 865.554,161.806 868.5,161C 876.451,159.376 884.451,158.042 892.5,157C 896.143,149.15 893.476,144.983 884.5,144.5C 881.676,144.83 879.009,145.664 876.5,147C 874.801,149.31 872.801,151.143 870.5,152.5C 865.996,152.066 861.663,151.066 857.5,149.5C 861.553,139.485 868.887,133.818 879.5,132.5 Z M 894.5,166.5 C 896.977,177.495 892.477,183.828 881,185.5C 875.476,185.337 871.976,182.67 870.5,177.5C 871.248,175.668 872.248,174.001 873.5,172.5C 880.52,170.176 887.52,168.176 894.5,166.5 Z"/></g>
<g><path style="opacity:0.936" fill="#000000" d="M 1015.5,132.5 C 1038.1,131.602 1050.1,142.435 1051.5,165C 1049.31,188.188 1036.65,198.521 1013.5,196C 997.688,191.841 989.688,181.508 989.5,165C 989.612,147.077 998.278,136.244 1015.5,132.5 Z M 1015.5,145.5 C 1023.92,143.628 1029.76,146.628 1033,154.5C 1035.9,162.226 1035.57,169.893 1032,177.5C 1023.15,187.12 1015.15,186.453 1008,175.5C 1004.76,167.374 1005.09,159.374 1009,151.5C 1011.06,149.266 1013.23,147.266 1015.5,145.5 Z"/></g>
<g><path style="opacity:0.962" fill="#000000" d="M 1087.5,132.5 C 1090.5,132.5 1093.5,132.5 1096.5,132.5C 1096.83,137.544 1096.49,142.544 1095.5,147.5C 1087.46,144.938 1081.29,147.271 1077,154.5C 1075.59,168.115 1075.09,181.782 1075.5,195.5C 1070.5,195.5 1065.5,195.5 1060.5,195.5C 1060.5,174.833 1060.5,154.167 1060.5,133.5C 1065.5,133.5 1070.5,133.5 1075.5,133.5C 1075.34,136.187 1075.5,138.854 1076,141.5C 1078.59,136.721 1082.43,133.721 1087.5,132.5 Z"/></g>
<g><path style="opacity:0.934" fill="#000000" d="M 1123.5,132.5 C 1134.11,131.443 1143.28,134.443 1151,141.5C 1151.67,142.833 1152.33,144.167 1153,145.5C 1154.46,162.097 1154.96,178.763 1154.5,195.5C 1149.5,195.5 1144.5,195.5 1139.5,195.5C 1139.66,193.143 1139.5,190.81 1139,188.5C 1130.96,196.518 1121.46,198.685 1110.5,195C 1100.06,189.355 1096.89,180.855 1101,169.5C 1104.37,164.223 1109.2,161.057 1115.5,160C 1122.18,159.073 1128.85,158.073 1135.5,157C 1139.45,153.283 1139.12,149.617 1134.5,146C 1129.68,143.913 1125.01,144.246 1120.5,147C 1118.59,149.25 1116.42,151.084 1114,152.5C 1109.83,151.785 1105.66,151.119 1101.5,150.5C 1102.3,145.191 1104.96,141.025 1109.5,138C 1113.98,135.455 1118.65,133.622 1123.5,132.5 Z M 1135.5,167.5 C 1136.5,167.5 1137.5,167.5 1138.5,167.5C 1140.04,178.092 1135.54,184.092 1125,185.5C 1119.47,185.335 1115.97,182.668 1114.5,177.5C 1115.37,173.13 1118.04,170.63 1122.5,170C 1127.05,169.571 1131.38,168.738 1135.5,167.5 Z"/></g>
<g><path style="opacity:0.925" fill="#000000" d="M 1185.5,132.5 C 1196.79,131.045 1206.29,134.378 1214,142.5C 1215.71,144.909 1216.54,147.575 1216.5,150.5C 1211.94,151.004 1207.44,151.671 1203,152.5C 1198.77,144.977 1192.6,142.811 1184.5,146C 1182.79,147.378 1181.45,149.045 1180.5,151C 1181.45,152.955 1182.79,154.622 1184.5,156C 1191.46,157.823 1198.46,159.49 1205.5,161C 1218.62,166.972 1221.45,176.139 1214,188.5C 1203.33,196.459 1191.5,198.626 1178.5,195C 1169.68,192.35 1164.68,186.517 1163.5,177.5C 1168.52,177.218 1173.52,177.051 1178.5,177C 1183.33,184.573 1189.99,186.573 1198.5,183C 1201.98,180.294 1202.31,177.294 1199.5,174C 1192.33,171.498 1185,169.498 1177.5,168C 1165.29,162.561 1162.12,153.727 1168,141.5C 1173.03,136.737 1178.86,133.737 1185.5,132.5 Z"/></g>
<g><path style="opacity:0.938" fill="#000000" d="M 1226.5,133.5 C 1231.83,133.5 1237.17,133.5 1242.5,133.5C 1242.5,154.167 1242.5,174.833 1242.5,195.5C 1237.17,195.5 1231.83,195.5 1226.5,195.5C 1226.5,174.833 1226.5,154.167 1226.5,133.5 Z"/></g>
<g><path style="opacity:0.98" fill="#1d3b8c" d="M 89.5,148.5 C 89.4744,166.388 94.1411,183.054 103.5,198.5C 103.5,235.167 103.5,271.833 103.5,308.5C 98.2361,307.201 93.5694,304.868 89.5,301.5C 89.5,250.5 89.5,199.5 89.5,148.5 Z"/></g>
<g><path style="opacity:0.965" fill="#fca952" d="M 507.5,157.5 C 508.487,162.32 509.153,167.32 509.5,172.5C 509.5,216.167 509.5,259.833 509.5,303.5C 508.5,303.167 507.833,302.5 507.5,301.5C 507.5,253.5 507.5,205.5 507.5,157.5 Z"/></g>
<g><path style="opacity:0.984" fill="#fcac50" d="M 509.5,172.5 C 511.278,177.825 513.278,183.158 515.5,188.5C 515.5,227.833 515.5,267.167 515.5,306.5C 513.5,305.5 511.5,304.5 509.5,303.5C 509.5,259.833 509.5,216.167 509.5,172.5 Z"/></g>
<g><path style="opacity:0.984" fill="#dd2909" d="M 367.5,177.5 C 370.193,183.89 373.193,190.223 376.5,196.5C 376.5,233.833 376.5,271.167 376.5,308.5C 373.382,307.441 370.382,306.108 367.5,304.5C 367.5,262.167 367.5,219.833 367.5,177.5 Z"/></g>
<g><path style="opacity:0.986" fill="#fdc83f" d="M 553.5,186.5 C 553.5,226.167 553.5,265.833 553.5,305.5C 553.158,306.338 552.492,306.672 551.5,306.5C 551.5,267.833 551.5,229.167 551.5,190.5C 551.66,188.847 552.326,187.514 553.5,186.5 Z"/></g>
<g><path style="opacity:0.987" fill="#fcb14c" d="M 515.5,188.5 C 518.572,193.635 521.905,198.635 525.5,203.5C 525.5,238.833 525.5,274.167 525.5,309.5C 521.956,309.115 518.623,308.115 515.5,306.5C 515.5,267.167 515.5,227.833 515.5,188.5 Z"/></g>
<g><path style="opacity:0.988" fill="#fdc441" d="M 551.5,190.5 C 551.5,229.167 551.5,267.833 551.5,306.5C 548.785,308.072 545.785,309.072 542.5,309.5C 542.5,274.167 542.5,238.833 542.5,203.5C 545.759,199.304 548.759,194.97 551.5,190.5 Z"/></g>
<g><path style="opacity:0.987" fill="#e22a07" d="M 376.5,196.5 C 377.803,198.142 379.136,199.809 380.5,201.5C 380.5,237.5 380.5,273.5 380.5,309.5C 379.167,309.167 377.833,308.833 376.5,308.5C 376.5,271.167 376.5,233.833 376.5,196.5 Z"/></g>
<g><path style="opacity:0.988" fill="#1d418c" d="M 103.5,198.5 C 107.806,203.473 112.473,208.14 117.5,212.5C 117.5,245.167 117.5,277.833 117.5,310.5C 114.833,310.5 112.167,310.5 109.5,310.5C 107.626,309.715 105.626,309.048 103.5,308.5C 103.5,271.833 103.5,235.167 103.5,198.5 Z"/></g>
<g><path style="opacity:0.988" fill="#e42b05" d="M 380.5,201.5 C 381.488,202.795 382.488,204.128 383.5,205.5C 383.5,240.167 383.5,274.833 383.5,309.5C 382.5,309.5 381.5,309.5 380.5,309.5C 380.5,273.5 380.5,237.5 380.5,201.5 Z"/></g>
<g><path style="opacity:0.988" fill="#fdb848" d="M 525.5,203.5 C 527.854,206.851 530.854,209.518 534.5,211.5C 534.5,244.5 534.5,277.5 534.5,310.5C 532.167,310.5 529.833,310.5 527.5,310.5C 527.158,309.662 526.492,309.328 525.5,309.5C 525.5,274.167 525.5,238.833 525.5,203.5 Z"/></g>
<g><path style="opacity:0.987" fill="#fdc043" d="M 542.5,203.5 C 542.5,238.833 542.5,274.167 542.5,309.5C 541.508,309.328 540.842,309.662 540.5,310.5C 540.167,310.5 539.833,310.5 539.5,310.5C 539.5,275.833 539.5,241.167 539.5,206.5C 540.167,205.167 541.167,204.167 542.5,203.5 Z"/></g>
<g><path style="opacity:0.986" fill="#e52e08" d="M 383.5,205.5 C 385.5,206.833 387.167,208.5 388.5,210.5C 388.5,243.833 388.5,277.167 388.5,310.5C 386.833,310.5 385.167,310.5 383.5,310.5C 383.5,310.167 383.5,309.833 383.5,309.5C 383.5,274.833 383.5,240.167 383.5,205.5 Z"/></g>
<g><path style="opacity:0.983" fill="#fdbd45" d="M 539.5,206.5 C 539.5,241.167 539.5,275.833 539.5,310.5C 537.833,310.5 536.167,310.5 534.5,310.5C 534.5,277.5 534.5,244.5 534.5,211.5C 535.833,209.5 537.5,207.833 539.5,206.5 Z"/></g>
<g><path style="opacity:0.989" fill="#e6330b" d="M 388.5,210.5 C 389.872,211.512 391.205,212.512 392.5,213.5C 392.5,245.833 392.5,278.167 392.5,310.5C 391.167,310.5 389.833,310.5 388.5,310.5C 388.5,277.167 388.5,243.833 388.5,210.5 Z"/></g>
<g><path style="opacity:0.987" fill="#1d478c" d="M 117.5,212.5 C 121.228,215.559 125.228,218.226 129.5,220.5C 129.5,249.833 129.5,279.167 129.5,308.5C 127.374,309.048 125.374,309.715 123.5,310.5C 121.5,310.5 119.5,310.5 117.5,310.5C 117.5,277.833 117.5,245.167 117.5,212.5 Z"/></g>
<g><path style="opacity:0.987" fill="#e7360d" d="M 392.5,213.5 C 393.5,214.167 394.5,214.833 395.5,215.5C 395.5,247.167 395.5,278.833 395.5,310.5C 394.5,310.5 393.5,310.5 392.5,310.5C 392.5,278.167 392.5,245.833 392.5,213.5 Z"/></g>
<g><path style="opacity:0.987" fill="#e83b10" d="M 395.5,215.5 C 397.5,216.833 399.5,218.167 401.5,219.5C 401.5,249.5 401.5,279.5 401.5,309.5C 399.901,309.232 398.568,309.566 397.5,310.5C 396.833,310.5 396.167,310.5 395.5,310.5C 395.5,278.833 395.5,247.167 395.5,215.5 Z"/></g>
<g><path style="opacity:0.987" fill="#e94114" d="M 401.5,219.5 C 403.5,220.5 405.5,221.5 407.5,222.5C 407.5,250.833 407.5,279.167 407.5,307.5C 405.421,307.971 403.421,308.637 401.5,309.5C 401.5,279.5 401.5,249.5 401.5,219.5 Z"/></g>
<g><path style="opacity:0.987" fill="#1e4e8d" d="M 129.5,220.5 C 132.167,221.833 134.833,223.167 137.5,224.5C 137.5,251.5 137.5,278.5 137.5,305.5C 134.993,306.892 132.327,307.892 129.5,308.5C 129.5,279.167 129.5,249.833 129.5,220.5 Z"/></g>
<g><path style="opacity:0.986" fill="#ea4617" d="M 407.5,222.5 C 408.833,223.167 410.167,223.833 411.5,224.5C 411.5,251.5 411.5,278.5 411.5,305.5C 410.167,306.167 408.833,306.833 407.5,307.5C 407.5,279.167 407.5,250.833 407.5,222.5 Z"/></g>
<g><path style="opacity:0.982" fill="#1f548e" d="M 137.5,224.5 C 140.135,225.811 142.469,227.478 144.5,229.5C 144.5,253.167 144.5,276.833 144.5,300.5C 142.469,302.522 140.135,304.189 137.5,305.5C 137.5,278.5 137.5,251.5 137.5,224.5 Z"/></g>
<g><path style="opacity:0.985" fill="#eb4919" d="M 411.5,224.5 C 412.167,224.833 412.833,225.167 413.5,225.5C 413.5,251.833 413.5,278.167 413.5,304.5C 412.833,304.833 412.167,305.167 411.5,305.5C 411.5,278.5 411.5,251.5 411.5,224.5 Z"/></g>
<g><path style="opacity:0.983" fill="#eb4d1c" d="M 413.5,225.5 C 416.009,226.921 418.343,228.588 420.5,230.5C 420.5,253.167 420.5,275.833 420.5,298.5C 418.766,301.2 416.432,303.2 413.5,304.5C 413.5,278.167 413.5,251.833 413.5,225.5 Z"/></g>
<g><path style="opacity:0.933" fill="#000000" d="M 692.5,227.5 C 697.875,227.172 703.208,227.505 708.5,228.5C 721.194,246.028 733.694,263.695 746,281.5C 746.5,263.503 746.667,245.503 746.5,227.5C 751.833,227.5 757.167,227.5 762.5,227.5C 762.5,254.833 762.5,282.167 762.5,309.5C 757.821,309.666 753.155,309.499 748.5,309C 735.299,291.431 722.466,273.598 710,255.5C 709.5,273.497 709.333,291.497 709.5,309.5C 703.833,309.5 698.167,309.5 692.5,309.5C 692.5,282.167 692.5,254.833 692.5,227.5 Z"/></g>
<g><path style="opacity:0.933" fill="#000000" d="M 1085.5,227.5 C 1090.83,227.5 1096.17,227.5 1101.5,227.5C 1101.33,242.17 1101.5,256.837 1102,271.5C 1109.17,263.667 1116.33,255.833 1123.5,248C 1129.83,247.333 1136.17,247.333 1142.5,248C 1134.5,256.667 1126.5,265.333 1118.5,274C 1126.71,285.588 1135.04,297.088 1143.5,308.5C 1137.17,309.833 1130.83,309.833 1124.5,308.5C 1118.88,300.217 1112.88,292.217 1106.5,284.5C 1104.85,285.648 1103.35,286.981 1102,288.5C 1101.5,295.492 1101.33,302.492 1101.5,309.5C 1096.17,309.5 1090.83,309.5 1085.5,309.5C 1085.5,282.167 1085.5,254.833 1085.5,227.5 Z"/></g>
<g><path style="opacity:0.98" fill="#1f5a8f" d="M 144.5,229.5 C 147.833,230.833 150.167,233.167 151.5,236.5C 151.5,255.5 151.5,274.5 151.5,293.5C 149.5,296.167 147.167,298.5 144.5,300.5C 144.5,276.833 144.5,253.167 144.5,229.5 Z"/></g>
<g><path style="opacity:0.977" fill="#ec5420" d="M 420.5,230.5 C 423.2,232.234 425.2,234.568 426.5,237.5C 426.5,255.833 426.5,274.167 426.5,292.5C 424.939,294.973 422.939,296.973 420.5,298.5C 420.5,275.833 420.5,253.167 420.5,230.5 Z"/></g>
<g><path style="opacity:0.928" fill="#000000" d="M 867.5,310.5 C 865.833,310.5 864.167,310.5 862.5,310.5C 855.827,310.209 850.66,307.209 847,301.5C 845.553,287.573 845.053,273.573 845.5,259.5C 842.5,259.5 839.5,259.5 836.5,259.5C 836.5,255.5 836.5,251.5 836.5,247.5C 839.5,247.5 842.5,247.5 845.5,247.5C 845.5,242.5 845.5,237.5 845.5,232.5C 850.833,232.5 856.167,232.5 861.5,232.5C 861.5,237.5 861.5,242.5 861.5,247.5C 865.5,247.5 869.5,247.5 873.5,247.5C 873.5,251.5 873.5,255.5 873.5,259.5C 869.5,259.5 865.5,259.5 861.5,259.5C 861.333,271.171 861.5,282.838 862,294.5C 862.5,295 863,295.5 863.5,296C 866.482,296.498 869.482,296.665 872.5,296.5C 873.209,300.527 873.709,304.527 874,308.5C 871.723,309.117 869.556,309.784 867.5,310.5 Z"/></g>
<g><path style="opacity:0.963" fill="#206091" d="M 151.5,236.5 C 154.853,239.868 157.186,243.868 158.5,248.5C 158.5,259.5 158.5,270.5 158.5,281.5C 157.172,286.165 154.839,290.165 151.5,293.5C 151.5,274.5 151.5,255.5 151.5,236.5 Z"/></g>
<g><path style="opacity:0.954" fill="#ed5923" d="M 426.5,237.5 C 428.664,239.822 430.331,242.489 431.5,245.5C 431.5,258.5 431.5,271.5 431.5,284.5C 430.331,287.511 428.664,290.178 426.5,292.5C 426.5,274.167 426.5,255.833 426.5,237.5 Z"/></g>
<g><path style="opacity:0.937" fill="#000000" d="M 810.5,310.5 C 806.167,310.5 801.833,310.5 797.5,310.5C 777.809,305.178 769.642,292.178 773,271.5C 778.724,250.71 792.224,242.877 813.5,248C 821.667,250.833 827.167,256.333 830,264.5C 831.304,270.423 831.804,276.423 831.5,282.5C 817.167,282.5 802.833,282.5 788.5,282.5C 789.93,295.225 796.93,300.058 809.5,297C 812.768,296.064 815.101,294.064 816.5,291C 821.57,290.592 826.57,291.092 831.5,292.5C 828.159,302.846 821.159,308.846 810.5,310.5 Z M 800.5,258.5 C 809.934,258.607 815.268,263.273 816.5,272.5C 807.167,272.5 797.833,272.5 788.5,272.5C 789.294,265.042 793.294,260.375 800.5,258.5 Z"/></g>
<g><path style="opacity:0.934" fill="#000000" d="M 1008.5,310.5 C 1004.5,310.5 1000.5,310.5 996.5,310.5C 983.95,307.785 976.117,300.118 973,287.5C 970.336,255.16 984.836,242.327 1016.5,249C 1031.47,258.564 1036.64,272.064 1032,289.5C 1028,301.005 1020.17,308.005 1008.5,310.5 Z M 1001.5,258.5 C 1011.98,260.505 1017.32,267.005 1017.5,278C 1017.53,285.263 1014.86,291.263 1009.5,296C 995.299,299.323 988.299,293.49 988.5,278.5C 987.888,268.345 992.221,261.678 1001.5,258.5 Z"/></g>
<g><path style="opacity:0.922" fill="#000000" d="M 1068.5,246.5 C 1072.17,246.5 1075.83,246.5 1079.5,246.5C 1079.83,251.544 1079.49,256.544 1078.5,261.5C 1070.02,258.602 1063.52,260.935 1059,268.5C 1058.5,282.163 1058.33,295.829 1058.5,309.5C 1053.17,309.5 1047.83,309.5 1042.5,309.5C 1042.5,288.833 1042.5,268.167 1042.5,247.5C 1047.5,247.5 1052.5,247.5 1057.5,247.5C 1057.34,250.187 1057.5,252.854 1058,255.5C 1060.49,251.168 1063.99,248.168 1068.5,246.5 Z"/></g>
<g><path style="opacity:0.933" fill="#000000" d="M 877.5,247.5 C 883.093,247.193 888.593,247.527 894,248.5C 897.212,261.69 900.879,274.69 905,287.5C 908.401,274.466 911.901,261.466 915.5,248.5C 921.054,247.194 926.554,247.194 932,248.5C 935.212,261.69 938.879,274.69 943,287.5C 946.489,274.543 949.823,261.543 953,248.5C 958.446,247.194 963.946,247.194 969.5,248.5C 963.567,268.465 957.734,288.465 952,308.5C 946.333,309.833 940.667,309.833 935,308.5C 931.333,295.5 927.667,282.5 924,269.5C 919.546,282.304 915.546,295.304 912,308.5C 906.554,309.806 901.054,309.806 895.5,308.5C 889.342,288.199 883.342,267.866 877.5,247.5 Z"/></g>
<g><path style="opacity:0.865" fill="#216492" d="M 158.5,248.5 C 160.917,253.609 161.917,259.109 161.5,265C 161.917,270.891 160.917,276.391 158.5,281.5C 158.5,270.5 158.5,259.5 158.5,248.5 Z"/></g>
<g><path style="opacity:0.88" fill="#ee5e26" d="M 431.5,245.5 C 434.624,251.515 435.957,258.015 435.5,265C 435.957,271.985 434.624,278.485 431.5,284.5C 431.5,271.5 431.5,258.5 431.5,245.5 Z"/></g>
</svg>
